<svg width="339" height="202" viewBox="0 0 339 202" fill="none" xmlns="http://www.w3.org/2000/svg">
<path d="M4.65112 34.5054C10.8836 40.7378 18.6853 43.484 26.7541 46.7848C32.861 49.2831 40.331 49.6227 45.9408 53.1548C50.4084 55.9678 43.4372 41.5783 43.3314 44.3289C43.1974 47.8112 44.7468 51.2054 45.557 54.5362C45.8538 55.7564 47.4365 59.3942 47.1687 60.5992C46.6833 62.7835 30.9387 58.6 29.517 61.4434" stroke="white" stroke-width="3" stroke-linecap="round"/>
<path d="M267.815 20.691C262.827 21.2452 255.857 27.1271 252.005 30.0157C248.782 32.4328 245.792 35.1159 242.949 37.959C242.398 38.5097 236.12 43.8515 236.08 43.7533C234.938 40.8987 236.042 35.6891 236.042 32.5867C236.042 28.4896 233.588 41.2452 235.505 44.8662C236.165 46.1135 240.29 47.5522 241.606 48.0128C243.493 48.6732 249.827 48.2613 250.547 49.7012" stroke="white" stroke-width="3" stroke-linecap="round"/>
<path d="M282.32 165.742C280.684 165.56 279.474 163.186 278.099 162.327C275.048 160.42 271.979 158.72 269.043 156.609C264.694 153.484 260.39 147.585 255.229 145.865C253.178 145.181 251.349 144.604 249.319 143.792C247.517 143.072 251.23 146.653 251.928 148.32C252.407 149.463 253.413 153.897 253.156 153.156C251.76 149.122 250.854 144.822 249.319 140.876C249.029 140.131 253.263 139.838 254.001 139.648C256.573 138.987 259.099 138.256 261.598 137.422" stroke="white" stroke-width="3" stroke-linecap="round"/>
<path d="M289.918 64.2063C289.918 69.732 289.918 75.2578 289.918 80.7835C289.918 82.458 290.832 88.2697 289.227 89.0722" stroke="white" stroke-width="3" stroke-linecap="round"/>
<path d="M288.536 104.268C288.536 105.715 291.934 110.507 292.642 108.029C293.531 104.919 289.943 106.982 289.227 108.412" stroke="white" stroke-width="3" stroke-linecap="round"/>
<path d="M17.7748 171.268C17.7748 155.598 9.93822 140.842 6.18606 125.834C5.74482 124.069 11.9115 128.675 12.6328 129.172C17.4628 132.503 22.1855 135.886 27.2914 138.804C29.3619 139.987 32.4756 141.219 33.9299 143.255C33.9449 143.276 24.6853 143.639 23.6843 143.639C17.0566 143.639 9.8877 144.229 3.38481 142.603C-0.701229 141.581 6.64626 138.066 7.72099 137.077C10.3449 134.663 13.2981 130.551 16.7387 129.786C18.0415 129.497 22.6098 125.093 22.6098 128.481C22.6098 137.406 19.1562 146.001 19.1562 155.036C19.1562 159.309 20.8982 168.309 18.4655 171.958" stroke="white" stroke-width="3" stroke-linecap="round"/>
<path d="M44.0221 198.896C56.5413 187.515 68.5028 175.665 80.2081 163.44C83.457 160.046 86.5856 156.646 89.456 152.925C90.156 152.018 92.1279 151.237 90.5305 151.237C84.9069 151.237 79.6709 156.011 74.5672 157.991C70.9628 159.389 66.3233 160.898 62.3645 160.178C60.3806 159.817 61.9578 158.546 62.9785 158.298C67.2745 157.253 71.4916 156.309 75.7568 155.074C80.5567 153.685 90.6642 149.691 93.2166 156.072C95.035 160.618 92.734 167.381 95.6725 171.421C96.2808 172.258 97.2074 176.41 97.2074 176.103" stroke="white" stroke-width="3" stroke-linecap="round"/>
<path d="M319.619 50.3919C319.619 45.354 321.211 36.8653 317.24 32.8937C317.173 32.8266 318.84 34.3513 319.964 34.8891C323.005 36.3434 325.777 38.8588 328.598 40.7218C329.115 41.0629 336.81 44.6574 336.81 45.2115C336.81 45.7668 331.24 47.7394 330.632 47.936C327.214 49.0418 323.85 49.0105 320.31 49.0105C316.2 49.0105 312.5 47.585 308.951 45.5569C307.707 44.8457 322.61 34.3446 325.145 33.2774C326.09 32.8793 325.835 41.5477 325.835 42.794C325.835 47.3399 322.006 52.1492 318.928 55.2269" stroke="white" stroke-width="3" stroke-linecap="round"/>
<path d="M185.619 194.752C185.619 190.383 185.495 185.995 185.619 181.628C185.713 178.367 189.131 185.018 189.802 185.773C191.47 187.649 193.704 190.445 195.635 191.989C198.662 194.411 187.749 192.925 186.847 192.833C185.34 192.681 175.259 192.938 175.259 190.608C175.259 186.492 188.631 185.994 191.107 185.082C194.617 183.789 200.146 181.125 196.594 186.847C194.039 190.964 189.203 195.052 187.692 199.587" stroke="white" stroke-width="3" stroke-linecap="round"/>
<path d="M54.3829 10.3302C54.3829 18.5498 66.7818 9.34688 59.2179 8.94879C52.4685 8.59355 46.0943 6.95762 46.0943 16.0095C46.0943 29.1654 59.4801 27.0039 68.1973 22.7632C72.5635 20.639 76.4859 16.8713 76.4859 11.7117C76.4859 6.46315 71.2518 4.40881 66.8158 3.42304C61.3249 2.20284 49.9215 0.817681 45.3652 4.80447C40.3202 9.21878 33.9662 16.0738 37.4603 23.7609C39.836 28.9874 45.5997 33.2933 50.5456 35.5415C54.3805 37.2846 62.4135 38.4751 64.7437 33.8147" stroke="white" stroke-width="3" stroke-linecap="round"/>
<path d="M55.7643 19.3096C58.8951 19.3096 59.2179 16.2491 59.2179 13.7838" stroke="white" stroke-width="3" stroke-linecap="round"/>
</svg>
