<svg width="248" height="77" viewBox="0 0 248 77" fill="none" xmlns="http://www.w3.org/2000/svg">
<path d="M1.53766 36.279C5.53091 32.2858 6.65078 28.1594 8.13786 22.8484C9.25767 18.849 12.5892 15.2061 12.5892 11.0294C12.5892 8.55557 12.488 5.68154 9.67279 8.49677C8.12903 10.0405 7.75413 11.2685 7.75413 13.4853C7.75413 18.634 7.06341 23.6192 7.06341 28.6811C7.06341 31.1109 6.37269 33.4766 6.37269 35.5883C6.37269 38.0441 6.37269 31.2314 6.37269 30.0625C6.37269 28.3722 10.2199 27.7916 11.2077 29.0265C12.6067 30.7752 13.9706 31.9981 13.9706 34.5522C13.9706 39.661 21.1281 39.0744 23.4872 36.1255C24.0339 35.4421 25.7435 32.0755 24.6384 31.444C21.6408 29.7311 20.8778 31.0056 20.8778 33.8615C20.8778 36.1657 20.4084 38.3512 23.2953 38.3512C25.5977 38.3512 27.9001 38.3512 30.2025 38.3512C32.5777 38.3512 31.9293 35.115 31.9293 33.5161C31.9293 31.7883 32.1919 34.8532 33.4642 36.1255C36.319 38.9803 40.9086 37.3208 40.9086 33.1708C40.9086 29.7781 41.5993 35.816 41.5993 36.9697C41.5993 40.1761 41.7772 43.4383 41.5993 46.6398C41.3325 51.4438 36.8573 56.2168 33.6561 59.4181C28.6774 64.3967 22.4228 66.6706 15.1985 66.6706C10.8648 66.6706 9.82628 64.3473 9.82628 60.1088C9.82628 56.0282 11.954 54.2377 15.6974 54.2377C19.1042 54.2377 22.8938 57.9832 26.25 59.2262C29.0753 60.2726 30.9293 61.1449 34.0014 61.1449C35.7062 61.1449 41.4154 60.1689 42.8273 61.2984C44.1866 62.3858 48.0636 63.217 49.888 63.217" stroke="white" stroke-width="3" stroke-linecap="round"/>
<path d="M65.7745 37.6604C66.0589 35.101 69.7533 31.7749 70.9549 29.3718C72.6954 25.8909 72.6817 22.4527 72.6817 18.6657C72.6817 13.5563 71.3493 10.3149 69.3816 5.88739C66.2561 -1.14494 65.0838 10.3108 65.0838 13.1399C65.0838 18.5399 65.7745 23.7331 65.7745 29.0648C65.7745 31.6091 65.3162 34.6054 66.3117 36.9697C67.7448 40.3733 64.4723 40.9356 65.928 37.6604C67.4163 34.3117 72.0236 29.8124 75.7899 32.8254C76.8204 33.6498 74.7586 44.8401 78.7447 41.6513C82.3271 38.7853 83.0073 34.2069 88.5682 34.2069C92.0436 34.2069 89.3792 33.1975 87.5321 32.787C85.2676 32.2838 82.5572 31.2385 80.6249 33.1708C79.047 34.7487 78.5447 42.7967 81.661 43.1862C84.8923 43.5901 89.9496 45.511 89.9496 40.078C89.9496 36.4497 90.2656 42.2404 91.0241 42.4571C92.9229 42.9996 95.4754 44.298 95.4754 41.4594C95.4754 35.468 97.854 33.4737 103.227 31.444C104.522 30.9548 106.515 30.1496 107.908 30.0625C108.81 30.0062 106.629 30.7533 106.182 30.7533C104.166 30.7533 100.708 31.7374 99.2743 33.1708C94.9423 37.5028 95.9954 43.6205 102.92 43.8769C107.818 44.0583 111.825 41.8809 113.588 37.1232C116.476 29.3248 116.888 22.5315 116.888 14.2144C116.888 11.848 116.888 9.48168 116.888 7.11533C116.888 1.43462 116.888 10.708 116.888 12.1039C116.888 18.8119 117.599 25.9994 116.159 32.4801C115.962 33.3663 113.91 44.4909 113.779 44.4909C113.143 44.4909 113.434 38.894 113.434 38.3512C113.434 34.7405 113.525 35.9317 116.197 34.7441C117.635 34.105 119.856 33.5161 121.377 33.5161C123.84 33.5161 124.347 35.9571 122.068 36.9697C120.078 37.8541 118.394 38.3512 116.197 38.3512C115.671 38.3512 117.304 38.7674 117.924 39.3872C118.75 40.2135 119.428 41.1143 120.188 41.9583C124.058 46.258 127.356 43.5415 131.93 41.9583C134.636 41.0214 141.274 35.9941 135.153 34.2452C133.581 33.796 131.552 32.7285 131.393 35.5883C131.283 37.5691 130.702 38.9911 130.702 41.114C130.702 43.9498 137.593 47.5235 139.681 44.913C140.849 43.4538 142.155 42.0177 143.442 40.7303C144.48 39.6923 143.826 35.9592 143.826 34.5522C143.826 34.2274 147.869 34.8976 149.351 34.8976C152.548 34.8976 150.733 36.6784 150.733 39.0419C150.733 41.7811 157.03 44.6399 159.022 42.1501C161.139 39.5037 162.554 36.279 165.929 36.279C169.814 36.279 172.836 38.8742 172.836 43.1862" stroke="white" stroke-width="3" stroke-linecap="round"/>
<path d="M171.454 45.2584C168.89 45.5789 165.698 46.7153 163.857 43.4932C161.22 38.8784 161.016 45.1041 162.859 46.9468C164.965 49.0531 169.348 47.8567 172.145 48.0212C175.431 48.2145 177.242 48.9263 180.434 47.3305" stroke="white" stroke-width="3" stroke-linecap="round"/>
<path d="M66.4652 39.0419C66.4652 42.3478 63.506 42.1975 62.3209 44.5676" stroke="white" stroke-width="3" stroke-linecap="round"/>
<path d="M106.527 31.444V32.8254" stroke="white" stroke-width="3" stroke-linecap="round"/>
<path d="M208.753 1.74307C208.753 6.75715 208.649 11.9558 207.218 16.7854C206.176 20.3045 203.358 23.4296 202.575 26.9543C201.875 30.1066 200.571 33.1284 199.774 36.3174C199.097 39.0244 199.739 43.8945 197.011 45.2584" stroke="white" stroke-width="3" stroke-linecap="round"/>
<path d="M192.176 65.9799C191.938 68.3593 190.231 71.9953 193.557 73.0406C196.732 74.0382 198.316 73.0514 198.316 69.4719C198.316 67.5922 195.333 67.1466 193.941 67.3997C191.572 67.8305 190.325 71.7534 189.413 73.5778" stroke="white" stroke-width="3" stroke-linecap="round"/>
<path d="M230.856 19.011C235.832 19.011 240.206 19.7859 239.836 13.4853C239.636 10.0914 228.243 16.5892 227.441 19.3948C226.163 23.8693 228.183 28.1069 232.583 30.0625C234.519 30.923 236.34 30.7533 238.454 30.7533C239.029 30.7533 240.977 31.0768 241.179 30.3695C241.383 29.6529 240.528 28.7218 239.836 28.6811C237.134 28.5222 229.906 28.4671 229.475 32.1347C229.24 34.1331 228.784 35.8657 228.784 38.0058C228.784 39.8075 229.882 41.1095 230.204 42.8792C230.681 45.5018 238.023 51.4959 240.526 48.3666C244.008 44.014 237.605 41.6382 234.31 44.5676C232.035 46.5895 227.904 49.9429 231.01 53.3935C234.112 56.8408 233.921 61.8256 236.037 65.6345C237.203 67.7347 237.916 70.0448 238.991 72.1964C240.611 75.4349 239.908 75.0138 236.727 74.3069C234.331 73.7743 233.04 71.939 230.856 70.9684C228.992 70.1399 226.903 68.7428 230.319 68.7428C233.636 68.7428 238.806 68.3829 240.68 71.5057C241.09 72.1888 241.647 67.4123 241.946 66.3636C242.195 65.4917 243.582 62.2825 244.364 61.8356C247.013 60.3218 244.936 61.6887 243.826 63.9078C242.874 65.8127 243.681 67.846 242.598 69.7405C242.327 70.2158 229.168 70.2521 235.001 72.1964" stroke="white" stroke-width="3" stroke-linecap="round"/>
</svg>
